<svg fill="none" viewBox="0 0 128 128" xmlns="http://www.w3.org/2000/svg"><path d="M13.943 70.808c0-3.248.89-4.939 2.58-6.23l51.971 21.447c-2.625 8.01-.438 15.235 2.18 17.264l-53.082-24.25c-1.505-1.178-3.649-4.093-3.649-8.231Z" fill="#ffffff" class="fill-ffffff"></path><path clip-rule="evenodd" d="M15.31 62.989a2 2 0 0 1 1.976-.259l51.971 21.447a2 2 0 0 1 1.138 2.471c-1.207 3.683-1.297 7.156-.808 9.9.509 2.853 1.573 4.587 2.313 5.161a1.999 1.999 0 0 1-2.057 3.4l-53.082-24.25a1.998 1.998 0 0 1-.402-.244c-1.928-1.51-4.416-4.98-4.416-9.807 0-1.796.245-3.327.824-4.651.594-1.354 1.478-2.356 2.543-3.168Zm2.282 16.05c-1.505-1.178-3.649-4.093-3.649-8.23 0-3.25.89-4.94 2.58-6.23l51.971 21.446c-1.824 5.567-1.324 10.755.03 14.083.594 1.46 1.352 2.563 2.15 3.181l-53.082-24.25Z" fill="#b80000" fill-rule="evenodd" class="fill-000000"></path><path d="m114.057 44.151-50.27-19.44-47.522 40.06 54.59 22.974 43.202-43.594Z" fill="#b80000" class="fill-000000"></path><path clip-rule="evenodd" d="M62.497 23.182a2 2 0 0 1 2.01-.336l50.271 19.44a2 2 0 0 1 .699 3.273L72.276 89.153a2 2 0 0 1-2.197.436L15.49 66.614a2 2 0 0 1-.513-3.373l47.521-40.06Zm1.29 1.529 50.27 19.44-43.202 43.594-54.59-22.975 47.521-40.06Z" fill="#b80000" fill-rule="evenodd" class="fill-000000"></path><path d="m85.313 48.716-21.98-8.632-4.22 3.62 21.795 9.128 4.405-4.116ZM114.013 59.061c-4.806-3.916-3.916-10.19-.223-14.817L68.85 86.692c-2.759 6.63-.52 13.04 1.869 16.575l43.294-44.206Z" fill="#ffffff" class="fill-ffffff"></path><path clip-rule="evenodd" d="M115.144 42.772a2 2 0 0 1 .209 2.72c-1.638 2.052-2.573 4.374-2.64 6.49-.064 2.05.671 3.987 2.563 5.529a1.997 1.997 0 0 1 .165 2.95l-43.293 44.205a2.001 2.001 0 0 1-3.086-.279c-2.626-3.886-5.159-11.013-2.059-18.463a2 2 0 0 1 .474-.686l44.94-42.448a2 2 0 0 1 2.727-.018Zm-1.354 1.472L68.85 86.692c-2.343 5.632-1.081 11.104.816 14.791.337.654.693 1.251 1.053 1.784l43.294-44.206a9.733 9.733 0 0 1-1.304-1.276c-1.997-2.374-2.392-5.325-1.653-8.207.478-1.866 1.432-3.702 2.734-5.334Z" fill="#b80000" fill-rule="evenodd" class="fill-000000"></path><path clip-rule="evenodd" d="M111.216 58.544a1 1 0 0 1-.023 1.414L80.581 89.59a1 1 0 1 1-1.392-1.436l30.613-29.634a1 1 0 0 1 1.414.023ZM109.451 56.068a1 1 0 0 1-.053 1.413L89.642 75.813a1 1 0 1 1-1.36-1.466l19.755-18.332a1 1 0 0 1 1.414.053ZM24.762 76.368a1 1 0 0 1 1.312-.528l19.052 8.108a1 1 0 0 1-.784 1.84L25.291 77.68a1 1 0 0 1-.529-1.312Z" fill="#b80000" fill-rule="evenodd" class="fill-000000"></path></svg>